<?xml version="1.0" encoding="UTF-8" standalone="no"?>
<!DOCTYPE svg PUBLIC "-//W3C//DTD SVG 1.1//EN" "http://www.w3.org/Graphics/SVG/1.1/DTD/svg11.dtd">
<svg width="100%" height="100%" viewBox="0 0 86 86" version="1.1" xmlns="http://www.w3.org/2000/svg" xmlns:xlink="http://www.w3.org/1999/xlink" xml:space="preserve" xmlns:serif="http://www.serif.com/" style="fill-rule:evenodd;clip-rule:evenodd;stroke-linejoin:round;stroke-miterlimit:2;">
    <g id="Layer_1">
        <path d="M84.277,85.674C85.063,85.674 85.7,85.037 85.7,84.251L85.7,42.987C85.7,19.411 66.583,0.3 43,0.3C19.418,0.3 0.3,19.411 0.3,42.987C0.3,66.563 19.418,85.675 43,85.675C43.636,85.675 84.277,85.674 84.277,85.674Z" style="fill:url(#_Linear1);fill-rule:nonzero;"/>
        <g transform="matrix(0.211288,0,0,0.211288,13.6147,13.7701)">
            <path d="M287.305,243.005C287.169,241.233 286.377,239.529 285.078,238.258L172.835,126.015C177.251,115.612 179.582,104.346 179.582,92.703C179.582,69.949 170.707,48.54 154.644,32.437C138.558,16.366 117.164,7.5 94.397,7.5C71.619,7.5 50.262,16.369 34.15,32.45C0.907,65.675 0.9,119.716 34.145,152.938C50.256,169.053 71.62,177.928 94.386,177.928C106.032,177.928 117.27,175.578 127.698,171.156L164.572,208.058C166.106,209.573 168.129,210.377 170.312,210.306L190.407,209.601L189.751,229.746C189.689,231.871 190.456,233.939 191.996,235.452C193.48,236.964 195.565,237.786 197.681,237.7L217.85,237.011L217.126,257.134C217.063,259.261 217.88,261.333 219.364,262.846C220.898,264.358 222.685,265.171 225.104,265.097L245.223,264.413L244.549,284.539C244.431,286.771 245.371,288.918 246.967,290.442C248.439,291.781 250.276,292.502 252.212,292.502C252.49,292.502 252.775,292.49 253.059,292.465L283.91,289.039C288.079,288.584 291.115,284.864 290.757,280.686L287.305,243.005ZM84.106,82.415C74.63,91.881 59.31,91.881 49.854,82.415C40.384,72.946 40.384,57.629 49.854,48.169C59.31,38.709 74.625,38.7 84.106,48.166C93.563,57.625 93.557,72.952 84.106,82.415ZM260.97,245.575C259.844,246.701 258.335,247.263 256.869,247.263C255.403,247.263 253.893,246.7 252.768,245.575L157.267,150.046C159.926,147.179 162.344,144.161 164.54,140.988L260.969,237.398C263.221,239.65 263.221,243.324 260.97,245.575Z" style="fill:white;fill-rule:nonzero;"/>
        </g>
        <g transform="matrix(1.72062,0,0,1.72062,-21.2913,-21.4266)">
            <circle cx="31.868" cy="31.826" r="7.722" style="fill:rgb(228,86,70);fill-opacity:0.22;"/>
        </g>
    </g>
    <defs>
        <linearGradient id="_Linear1" x1="0" y1="0" x2="1" y2="0" gradientUnits="userSpaceOnUse" gradientTransform="matrix(0,42.6872,-42.7001,0,43,42.9873)"><stop offset="0" style="stop-color:rgb(228,86,70);stop-opacity:1"/><stop offset="1" style="stop-color:rgb(139,49,55);stop-opacity:1"/></linearGradient>
    </defs>
</svg>
